HIERARCHY
ROOT Hips
{
 OFFSET 0.000000 0.000000 0.000000
 CHANNELS 6 Xposition Yposition Zposition Yrotation Xrotation Zrotation
 JOINT Chest
 {
  OFFSET 0.000000 9.585900 0.002600
  CHANNELS 3 Yrotation Xrotation Zrotation
  JOINT Chest2
  {
   OFFSET 0.000000 9.601200 -0.005300
   CHANNELS 3 Yrotation Xrotation Zrotation
   JOINT Chest3
   {
    OFFSET 0.000000 9.561800 0.000000
    CHANNELS 3 Yrotation Xrotation Zrotation
    JOINT Chest4
    {
     OFFSET 0.000000 9.552100 0.000000
     CHANNELS 3 Yrotation Xrotation Zrotation
     JOINT Neck
     {
      OFFSET 0.000000 14.453000 0.000000
      CHANNELS 3 Yrotation Xrotation Zrotation
      JOINT Head
      {
       OFFSET 0.000000 8.936500 -0.011300
       CHANNELS 3 Yrotation Xrotation Zrotation
       End Site
       {
        OFFSET 0.000000 17.073600 -0.006000
       }
      }
     }
     JOINT RightCollar
     {
      OFFSET -2.921100 9.558500 0.000000
      CHANNELS 3 Yrotation Xrotation Zrotation
      JOINT RightShoulder
      {
       OFFSET -13.519700 0.000000 0.000000
       CHANNELS 3 Yrotation Xrotation Zrotation
       JOINT RightElbow
       {
        OFFSET 0.000000 -29.696600 0.000000
        CHANNELS 3 Yrotation Xrotation Zrotation
        JOINT RightWrist
        {
         OFFSET 0.000000 -24.004700 0.000000
         CHANNELS 3 Yrotation Xrotation Zrotation
         End Site
         {
          OFFSET 0.000000 -17.728500 0.000000
         }
        }
       }
      }
     }
     JOINT LeftCollar
     {
      OFFSET 2.921100 9.558500 0.000000
      CHANNELS 3 Yrotation Xrotation Zrotation
      JOINT LeftShoulder
      {
       OFFSET 13.519700 0.000000 0.000000
       CHANNELS 3 Yrotation Xrotation Zrotation
       JOINT LeftElbow
       {
        OFFSET 0.000000 -29.696600 0.000000
        CHANNELS 3 Yrotation Xrotation Zrotation
        JOINT LeftWrist
        {
         OFFSET 0.000000 -24.004700 0.000000
         CHANNELS 3 Yrotation Xrotation Zrotation
         End Site
         {
          OFFSET 0.000000 -17.728500 0.000000
         }
        }
       }
      }
     }
    }
   }
  }
 }
 JOINT RightHip
 {
  OFFSET -7.771700 -0.012900 -0.001300
  CHANNELS 3 Yrotation Xrotation Zrotation
  JOINT RightKnee
  {
   OFFSET 0.000000 -40.869800 0.001200
   CHANNELS 3 Yrotation Xrotation Zrotation
   JOINT RightAnkle
   {
    OFFSET 0.000000 -39.717900 0.002100
    CHANNELS 3 Yrotation Xrotation Zrotation
    JOINT RightToe
    {
     OFFSET 0.000000 -4.965400 11.033500
     CHANNELS 3 Yrotation Xrotation Zrotation
     End Site
     {
      OFFSET 0.000000 -1.423100 5.872300
     }
    }
   }
  }
 }
 JOINT LeftHip
 {
  OFFSET 7.771700 -0.012900 -0.001300
  CHANNELS 3 Yrotation Xrotation Zrotation
  JOINT LeftKnee
  {
   OFFSET 0.000000 -40.869800 0.001200
   CHANNELS 3 Yrotation Xrotation Zrotation
   JOINT LeftAnkle
   {
    OFFSET 0.000000 -39.717900 0.002100
    CHANNELS 3 Yrotation Xrotation Zrotation
    JOINT LeftToe
    {
     OFFSET 0.000000 -4.965400 11.033500
     CHANNELS 3 Yrotation Xrotation Zrotation
     End Site
     {
      OFFSET 0.000000 -1.423100 5.872300
     }
    }
   }
  }
 }
}
MOTION
Frames: 13
Frame Time: 0.008333
-42.896732 44.531912 24.945472 179.290350 -34.384112 -1.257079 1.049417 29.693257 -0.192009 0.154403 5.708587 0.043425 0.230670 8.934716 0.074751 0.690120 23.802767 0.295897 -3.762965 13.525502 -9.612500 -1.881683 -11.269299 -9.745061 15.155442 0.153528 -3.965826 -6.977622 -19.380985 -2.705343 -66.509567 -31.421387 46.136185 -24.926096 -11.611225 -5.983895 -19.047977 -2.572915 -9.186827 13.555939 -19.573171 4.684754 69.383635 -41.990679 -67.659574 27.686326 -7.782615 18.660625 0.361656 -57.552942 7.258588 -160.025159 72.228841 -159.636298 -13.737209 -22.825177 9.187727 0.274743 -0.882386 0.116660 2.224892 -38.987149 -3.910023 175.366391 58.732102 174.150588 -1.592620 -43.183370 5.091044 0.130152 0.437864 0.070909
-42.896274 44.531378 24.944768 179.288476 -34.391590 -1.267948 1.070361 29.685770 -0.174058 0.145648 5.721207 0.045606 0.242198 8.921341 0.074258 0.685223 23.812844 0.299744 -3.767446 13.530390 -9.612188 -1.882835 -11.262196 -9.751469 15.160546 0.141950 -3.978836 -6.989527 -19.373265 -2.708635 -66.513597 -31.416223 46.155312 -24.894631 -11.602877 -5.875569 -19.051339 -2.588675 -9.178868 13.542227 -19.570428 4.687024 69.402378 -42.016443 -67.689821 27.686877 -7.772953 18.661185 0.345443 -57.545898 7.277225 -160.000028 72.227398 -159.613161 -13.697036 -22.814342 9.175270 0.258367 -0.894989 0.118101 2.219394 -38.979471 -3.893421 175.367896 58.729531 174.154192 -1.596199 -43.187112 5.090910 0.130971 0.439471 0.070749
-42.896852 44.531401 24.943495 179.298439 -34.404422 -1.278849 1.073749 29.691497 -0.165776 0.143477 5.720879 0.046373 0.239277 8.926833 0.075864 0.693275 23.806094 0.300542 -3.771696 13.538178 -9.613743 -1.887252 -11.253745 -9.752401 15.156997 0.144107 -3.979242 -7.008595 -19.377412 -2.706790 -66.506202 -31.441882 46.186962 -24.857387 -11.581618 -5.790953 -19.058298 -2.599440 -9.170480 13.531296 -19.571116 4.688549 69.405064 -42.020639 -67.685973 27.682836 -7.758481 18.600355 0.327201 -57.527298 7.282225 -160.005917 72.232855 -159.617294 -13.682268 -22.814614 9.163569 0.248995 -0.894620 0.119812 2.209034 -38.966998 -3.888254 175.381948 58.728082 174.167984 -1.587530 -43.188056 5.088228 0.131214 0.440057 0.070094
-42.898307 44.531063 24.942996 179.307531 -34.413034 -1.283266 1.076180 29.692910 -0.162855 0.143161 5.720448 0.045844 0.240118 8.925395 0.076473 0.695996 23.804583 0.302555 -3.776596 13.548344 -9.613896 -1.892577 -11.242639 -9.750829 15.161271 0.129826 -3.993782 -7.030509 -19.374265 -2.714294 -66.489352 -31.450454 46.209872 -24.822566 -11.564095 -5.717107 -19.068639 -2.606198 -9.158709 13.527714 -19.575085 4.687156 69.418259 -42.020514 -67.696113 27.677984 -7.745307 18.564797 0.324681 -57.516414 7.275024 -160.024551 72.235095 -159.631205 -13.684182 -22.816248 9.160031 0.246952 -0.889661 0.118670 2.205928 -38.959420 -3.889209 175.399745 58.727366 174.183800 -1.583541 -43.186726 5.091173 0.129953 0.440291 0.069978
-42.900609 44.531225 24.941978 179.322596 -34.426494 -1.284855 1.070487 29.699915 -0.165587 0.142778 5.718705 0.044037 0.240456 8.924553 0.076488 0.696903 23.803578 0.303082 -3.780345 13.556641 -9.611941 -1.897109 -11.233926 -9.747440 15.178106 0.095927 -4.022094 -7.057453 -19.334713 -2.694480 -66.466210 -31.527759 46.249863 -24.820597 -11.532511 -5.677957 -19.075647 -2.607712 -9.148565 13.527894 -19.585933 4.686397 69.435018 -42.018886 -67.713736 27.668300 -7.730746 18.537042 0.332367 -57.501150 7.252820 -160.059760 72.235882 -159.659313 -13.697024 -22.817042 9.159335 0.232630 -0.880043 0.114438 2.204728 -38.946622 -3.900412 175.401666 58.727299 174.187143 -1.587680 -43.183646 5.097286 0.127370 0.440953 0.066834
-42.902383 44.530903 24.941916 179.340463 -34.434215 -1.290091 1.060254 29.703476 -0.167272 0.154807 5.710059 0.046789 0.233385 8.929894 0.077038 0.699804 23.803064 0.306984 -3.782016 13.559313 -9.611076 -1.909649 -11.223801 -9.746332 15.179589 0.080549 -4.038327 -7.073130 -19.311256 -2.681656 -66.463656 -31.537298 46.255183 -24.761427 -11.517586 -5.576053 -19.086509 -2.623604 -9.141108 13.531186 -19.573388 4.684776 69.448607 -42.023929 -67.729624 27.662133 -7.723072 18.489803 0.337097 -57.490990 7.232773 -160.095441 72.237144 -159.687620 -13.705065 -22.823565 9.156447 0.230508 -0.876227 0.117526 2.208083 -38.941471 -3.907122 175.402860 58.726729 174.191236 -1.596065 -43.178186 5.110643 0.125891 0.439439 0.065365
-42.903110 44.530495 24.942164 179.350548 -34.440838 -1.296268 1.054516 29.708808 -0.165494 0.163952 5.704582 0.049679 0.229456 8.930935 0.076636 0.710377 23.797808 0.313211 -3.791359 13.566071 -9.610692 -1.914340 -11.218822 -9.744070 15.170728 0.079038 -4.044782 -7.067029 -19.304322 -2.689433 -66.460230 -31.576759 46.273797 -24.735478 -11.496255 -5.494540 -19.099866 -2.647349 -9.132093 13.537413 -19.550280 4.682023 69.456731 -42.032971 -67.743670 27.664060 -7.715800 18.475778 0.339021 -57.482939 7.223491 -160.109975 72.238328 -159.695702 -13.706751 -22.830574 9.155356 0.229498 -0.864906 0.115342 2.201432 -38.936034 -3.904705 175.407605 58.726475 174.193865 -1.595190 -43.180050 5.114424 0.123592 0.442803 0.063038
-42.903415 44.530032 24.942701 179.366977 -34.445815 -1.308216 1.052707 29.706896 -0.154432 0.161837 5.707975 0.048586 0.245987 8.921623 0.081058 0.701186 23.802848 0.314860 -3.795645 13.566896 -9.610003 -1.920477 -11.213149 -9.738668 15.164398 0.074289 -4.049449 -7.040264 -19.303950 -2.732099 -66.478715 -31.588870 46.297909 -24.716886 -11.474617 -5.409833 -19.109359 -2.667645 -9.121571 13.541941 -19.548474 4.679295 69.447226 -42.039097 -67.737310 27.670782 -7.711372 18.458880 0.328769 -57.476957 7.218999 -160.130996 72.238101 -159.715575 -13.683690 -22.836311 9.147697 0.243731 -0.859900 0.117036 2.195168 -38.934196 -3.903772 175.409235 58.724917 174.199593 -1.595244 -43.177947 5.118353 0.125224 0.442584 0.060022
-42.904278 44.529882 24.942853 179.382053 -34.453695 -1.316443 1.061364 29.707130 -0.141129 0.152525 5.711390 0.047344 0.241325 8.923486 0.080858 0.714402 23.792439 0.316300 -3.800612 13.570966 -9.606771 -1.927850 -11.207665 -9.735752 15.162599 0.063024 -4.066754 -7.056507 -19.288279 -2.729130 -66.465870 -31.645904 46.336463 -24.720929 -11.442420 -5.354479 -19.120323 -2.681042 -9.110355 13.532984 -19.573066 4.683012 69.423193 -42.037148 -67.697258 27.672303 -7.713019 18.399462 0.319702 -57.468559 7.214696 -160.168213 72.237391 -159.747242 -13.698478 -22.844811 9.148438 0.212569 -0.858013 0.112501 2.186499 -38.928495 -3.901770 175.414313 58.723463 174.204675 -1.599657 -43.177025 5.122135 0.127168 0.442685 0.061561
-42.906283 44.529680 24.943111 179.389759 -34.460714 -1.314783 1.082923 29.699430 -0.136226 0.154355 5.708807 0.049194 0.227053 8.929769 0.084640 0.725904 23.788121 0.321629 -3.814863 13.582136 -9.600770 -1.930440 -11.209465 -9.731911 15.157621 0.052127 -4.077766 -7.080984 -19.272975 -2.726153 -66.445931 -31.673775 46.366460 -24.716653 -11.423862 -5.286463 -19.137055 -2.684000 -9.101986 13.512749 -19.588356 4.696071 69.424946 -42.041986 -67.678934 27.678431 -7.714376 18.356372 0.323267 -57.460998 7.205317 -160.175712 72.237526 -159.750301 -13.738025 -22.852939 9.159779 0.224849 -0.849958 0.110170 2.186052 -38.920563 -3.906478 175.416876 58.724474 174.205793 -1.608876 -43.180977 5.128461 0.131392 0.447403 0.062901
-42.908824 44.529289 24.943670 179.391293 -34.465512 -1.307937 1.085876 29.701486 -0.141845 0.161205 5.704563 0.048793 0.230964 8.925699 0.087181 0.732096 23.788861 0.326569 -3.827200 13.588312 -9.594558 -1.924291 -11.221208 -9.726278 15.171092 0.010291 -4.103991 -7.124009 -19.222734 -2.702935 -66.437870 -31.680909 46.379261 -24.698805 -11.410226 -5.186434 -19.155719 -2.678447 -9.096550 13.497799 -19.604497 4.707384 69.432090 -42.057429 -67.676257 27.680197 -7.709886 18.336744 0.329541 -57.454254 7.195239 -160.174731 72.237924 -159.752145 -13.756909 -22.869174 9.171228 0.233913 -0.834164 0.106050 2.190633 -38.915669 -3.915226 175.417236 58.724813 174.204986 -1.616992 -43.181089 5.132923 0.132588 0.448702 0.062968
-42.910066 44.529352 24.943628 179.390952 -34.474977 -1.309176 1.094973 29.708821 -0.137334 0.166205 5.697915 0.048337 0.235656 8.927509 0.088827 0.741946 23.784076 0.331340 -3.818548 13.581283 -9.590057 -1.944526 -11.208064 -9.712251 15.158403 0.000579 -4.106999 -7.139391 -19.207201 -2.698682 -66.429618 -31.687233 46.394322 -24.683647 -11.399575 -5.084631 -19.176526 -2.690433 -9.085489 13.496260 -19.585946 4.710739 69.442186 -42.084436 -67.692859 27.673198 -7.698079 18.329721 0.323258 -57.443610 7.200511 -160.165640 72.236743 -159.747052 -13.749018 -22.873818 9.171431 0.221430 -0.837662 0.104136 2.189464 -38.905942 -3.912288 175.418689 58.724108 174.205887 -1.619822 -43.181470 5.135221 0.132935 0.448431 0.062630
-42.911898 44.529107 24.943941 179.386814 -34.482127 -1.305688 1.107501 29.707547 -0.137072 0.167774 5.694774 0.050853 0.253714 8.914678 0.088032 0.738663 23.792528 0.340051 -3.822092 13.584555 -9.584744 -1.949675 -11.204710 -9.705018 15.142185 0.008079 -4.100753 -7.144421 -19.209215 -2.712897 -66.431062 -31.721531 46.477445 -24.676534 -11.388419 -5.054872 -19.197679 -2.695191 -9.075416 13.496398 -19.594044 4.721095 69.429931 -42.078927 -67.672838 27.650858 -7.685147 18.312939 0.327976 -57.436791 7.197255 -160.168147 72.237992 -159.752613 -13.738248 -22.874030 9.170670 0.225668 -0.845620 0.103514 2.194002 -38.897381 -3.909383 175.420172 58.723938 174.201572 -1.622784 -43.183986 5.143561 0.127041 0.449285 0.060187
